<?xml version="1.0" encoding="utf-8"?>
<!-- Generator: Adobe Illustrator 27.0.0, SVG Export Plug-In . SVG Version: 6.00 Build 0)  -->
<svg version="1.1" id="Layer_1" xmlns="http://www.w3.org/2000/svg" xmlns:xlink="http://www.w3.org/1999/xlink" x="0px" y="0px"
	 viewBox="0 0 166 99" style="enable-background:new 0 0 166 99;" xml:space="preserve">
<style type="text/css">
	.st0{fill:#FAFAFA;stroke:#E0E3EE;stroke-width:0.9135;stroke-miterlimit:10;}
	.st1{fill-rule:evenodd;clip-rule:evenodd;fill:#1D3584;}
</style>
<g>
	<path class="st1" d="M98.14,81.63h-8.98V52c0-1.23,0.44-2.28,1.33-3.17c0.88-0.88,1.94-1.33,3.17-1.33c1.28,0,2.34,0.43,3.2,1.29
		c0.86,0.86,1.29,1.93,1.29,3.2V81.63z"/>
	<path class="st1" d="M77.59,81.63h-8.98V52c0-1.23,0.44-2.28,1.32-3.17c0.89-0.88,1.94-1.33,3.17-1.33c1.28,0,2.34,0.43,3.2,1.29
		c0.86,0.86,1.29,1.93,1.29,3.2V81.63z"/>
	<path class="st1" d="M69.99,15.61c9.89,0,18.41,5.51,22.93,13.55c1.13-0.2,2.28-0.35,3.48-0.35c8.65,0,15.93,5.58,18.62,13.32
		c0.39-0.03,0.77-0.12,1.18-0.12c10.93,0,19.8,8.87,19.8,19.8c0,10.93-8.87,19.8-19.8,19.8h-5.17V52c0-4.91-1.67-9.03-5.01-12.37
		c-3.34-3.34-7.46-5.01-12.37-5.01c-3.83,0-7.27,1.13-10.31,3.39c-2.99-2.26-6.43-3.39-10.31-3.39c-4.91,0-9.02,1.67-12.34,5.01
		c-3.31,3.34-4.97,7.46-4.97,12.37v29.63h-5.54c-10.93,0-19.8-8.87-19.8-19.8c0-8.65,5.58-15.94,13.32-18.63
		c-0.01-0.4-0.12-0.77-0.12-1.17C43.58,27.44,55.41,15.61,69.99,15.61z"/>
</g>
</svg>
